<svg fill="none" height="23" viewBox="0 0 35 23" width="35" xmlns="http://www.w3.org/2000/svg"><g fill="#000"><path d="m8.072 2.80811c0 .608-.32 1.136-.96 1.584-.64.432-1.368.648-2.184.648s-1.464-.16-1.944-.48c-.464-.32-.696-.752-.696-1.296 0-.736.344-1.312 1.032-1.728s1.416-.624001 2.184-.624001 1.384.160001 1.848.480001c.48.32.72.792.72 1.416zm-4.68 18.79199c-.992 0-1.712-.248-2.16-.744-.448002-.496-.672002-1.248-.672002-2.256 0-1.024.512002-3.752 1.536002-8.184l-1.344003-2.01599c2.000003-1.2 3.576003-1.8 4.728003-1.8.656 0 1.12.144 1.392.432.272.272.408.72.408 1.344 0 .24-.296 1.64799-.888 4.22399s-.888 4.416-.888 5.52.248 1.872.744 2.304c-.896.784-1.848 1.176-2.856 1.176z"/><path d="m24.6727 10.8721.24.12c1.712-2.92799 3.808-4.39199 6.288-4.39199 1.936 0 2.904.968 2.904 2.904 0 .83199-.24 2.23999-.72 4.22399-.464 1.984-.696 3.48-.696 4.488s.168 1.744.504 2.208c-.848.784-1.744 1.176-2.688 1.176-1.84 0-2.76-.992-2.76-2.976 0-.736.24-1.984.72-3.744s.72-2.904.72-3.432c0-.72-.272-1.08-.816-1.08-.448 0-.952.2-1.512.6-.544.384-1.072.912-1.584 1.584-.496.656-.92 1.496-1.272 2.52-.336 1.008-.504 2.04-.504 3.096 0 1.04.168 1.792.504 2.256-.848.784-1.744 1.176-2.688 1.176-1.84 0-2.76-.992-2.76-2.976 0-.736.24-1.984.72-3.744s.72-2.904.72-3.432c0-.72-.272-1.08-.816-1.08-.448 0-.952.2-1.512.6-.544.384-1.072.912-1.584 1.584-.496.656-.92 1.496-1.272 2.52-.336 1.008-.504 2.04-.504 3.096 0 1.04.168 1.792.504 2.256-.848.784-1.744 1.176-2.688 1.176-1.84 0-2.76002-.992-2.76002-2.976 0-.64.16-1.88.48-3.72.33602-1.84.68002-3.52 1.03202-5.03999l-1.24802-1.92c1.58402-.896 3.04802-1.344 4.39202-1.344s2.016.608 2.016 1.824c0 .8-.184 1.61599-.552 2.44799l.24.12c1.712-2.92799 3.808-4.39199 6.288-4.39199.896 0 1.6.224 2.112.672.528.448.792 1.12.792 2.016 0 .48-.08 1.00799-.24 1.58399z"/></g></svg>